<?xml version="1.0" encoding="UTF-8" standalone="no"?><!DOCTYPE svg PUBLIC "-//W3C//DTD SVG 1.1//EN" "http://www.w3.org/Graphics/SVG/1.1/DTD/svg11.dtd"><svg width="100%" height="100%" viewBox="0 0 205 84" version="1.1" xmlns="http://www.w3.org/2000/svg" xmlns:xlink="http://www.w3.org/1999/xlink" xml:space="preserve" xmlns:serif="http://www.serif.com/" style="fill-rule:evenodd;clip-rule:evenodd;stroke-linejoin:round;stroke-miterlimit:2;"><path d="M204.862,5.03c-0,-2.776 -2.255,-5.03 -5.031,-5.03l-194.801,0c-2.776,0 -5.03,2.254 -5.03,5.03l0,73.78c0,2.776 2.254,5.03 5.03,5.03l194.801,0c2.776,0 5.031,-2.254 5.031,-5.03l-0,-73.78Z" style="fill:#0c4da1;"/><g><path d="M29.865,36.425l9.771,-0l-0,4l-14.296,-0l-0,-21.247l4.525,-0l-0,17.247Z" style="fill:#fff;fill-rule:nonzero;"/><path d="M50.849,40.884c-2.142,-0 -3.902,-0.399 -5.279,-1.197c-1.377,-0.798 -2.377,-1.88 -3,-3.246c-0.623,-1.366 -0.934,-2.924 -0.934,-4.672l-0,-12.591l4.524,-0l0,12.033c0,1.836 0.371,3.263 1.112,4.279c0.742,1.017 2.033,1.525 3.875,1.525c1.752,-0 2.988,-0.508 3.706,-1.525c0.719,-1.016 1.078,-2.333 1.078,-3.951l0,-12.361l4.525,-0l0,12.492c0,2.164 -0.415,3.93 -1.246,5.296c-0.83,1.366 -1.962,2.361 -3.393,2.983c-1.432,0.623 -3.088,0.935 -4.968,0.935Z" style="fill:#fff;fill-rule:nonzero;"/><path d="M78.851,22.949l-9.673,-0l0,5.311l8.361,0l-0.533,3.738l-7.828,0l0,8.427l-4.525,-0l0,-21.247l14.198,-0l-0,3.771Z" style="fill:#fff;fill-rule:nonzero;"/><path d="M99.835,19.178l0,3.967l-6.754,0l0,17.28l-4.525,-0l0,-17.28l-6.787,0l-0,-3.967l18.066,-0Z" style="fill:#fff;fill-rule:nonzero;"/><path d="M110.033,19.178c1.88,-0 3.443,0.295 4.689,0.885c1.245,0.59 2.174,1.394 2.787,2.41c0.612,1.017 0.918,2.192 0.918,3.525c-0,1.421 -0.321,2.683 -0.963,3.787c-0.641,1.104 -1.608,1.967 -2.902,2.59c-1.294,0.623 -2.869,0.935 -4.727,0.935l-2.72,-0l-0,7.115l-4.525,-0l-0,-21.247l7.443,-0Zm-0.643,10.394c1.361,-0 2.409,-0.257 3.145,-0.771c0.736,-0.513 1.104,-1.404 1.104,-2.672c0,-1.071 -0.329,-1.874 -0.986,-2.41c-0.658,-0.535 -1.579,-0.803 -2.761,-0.803l-2.777,-0l-0,6.656l2.275,-0Z" style="fill:#fff;fill-rule:nonzero;"/><path d="M130.952,40.884c-2.273,-0 -4.203,-0.47 -5.787,-1.41c-1.585,-0.94 -2.782,-2.246 -3.591,-3.918c-0.808,-1.672 -1.213,-3.612 -1.213,-5.82c0,-2.448 0.492,-4.498 1.476,-6.148c0.983,-1.65 2.289,-2.875 3.918,-3.672c1.628,-0.798 3.437,-1.197 5.426,-1.197c2.274,-0 4.203,0.47 5.788,1.41c1.584,0.94 2.776,2.246 3.574,3.918c0.797,1.672 1.196,3.612 1.196,5.82c0,2.448 -0.486,4.497 -1.459,6.148c-0.972,1.65 -2.273,2.874 -3.902,3.672c-1.628,0.798 -3.437,1.197 -5.426,1.197Zm-0,-3.804c1.29,0 2.388,-0.289 3.295,-0.868c0.907,-0.58 1.585,-1.41 2.033,-2.492c0.448,-1.082 0.672,-2.356 0.672,-3.82c0,-2.317 -0.492,-4.126 -1.475,-5.427c-0.984,-1.3 -2.416,-1.951 -4.296,-1.951c-1.967,0 -3.464,0.64 -4.492,1.918c-1.027,1.279 -1.541,3.033 -1.541,5.263c0,2.317 0.492,4.126 1.476,5.427c0.983,1.3 2.426,1.95 4.328,1.95Z" style="fill:#fff;fill-rule:nonzero;"/><path d="M151.937,40.884c-3.279,-0 -6.066,-0.853 -8.361,-2.558l2.098,-3.246c2.033,1.29 4.022,1.935 5.968,1.935c1.245,-0 2.224,-0.197 2.934,-0.59c0.711,-0.394 1.066,-0.984 1.066,-1.771c-0,-0.481 -0.115,-0.88 -0.345,-1.197c-0.229,-0.317 -0.633,-0.623 -1.213,-0.918c-0.579,-0.295 -1.448,-0.672 -2.606,-1.131l-0.755,-0.295c-1.399,-0.547 -2.524,-1.071 -3.377,-1.574c-0.852,-0.503 -1.53,-1.148 -2.033,-1.934c-0.502,-0.787 -0.754,-1.782 -0.754,-2.984c0,-1.334 0.383,-2.443 1.148,-3.328c0.765,-0.886 1.749,-1.536 2.951,-1.951c1.202,-0.415 2.481,-0.623 3.836,-0.623c1.224,-0 2.487,0.202 3.787,0.606c1.301,0.405 2.541,1 3.722,1.787l-2.119,3.214c-1.043,-0.634 -1.966,-1.093 -2.77,-1.377c-0.804,-0.285 -1.673,-0.427 -2.607,-0.427c-1.042,0 -1.83,0.175 -2.362,0.525c-0.533,0.35 -0.799,0.82 -0.799,1.41c0,0.371 0.109,0.705 0.326,1c0.217,0.295 0.609,0.59 1.174,0.885c0.565,0.295 1.38,0.64 2.444,1.033l0.717,0.262c1.391,0.525 2.516,1.017 3.374,1.476c0.858,0.459 1.581,1.115 2.168,1.967c0.586,0.853 0.88,1.957 0.88,3.312c-0,1.421 -0.372,2.617 -1.115,3.59c-0.743,0.973 -1.754,1.7 -3.033,2.181c-1.279,0.481 -2.727,0.721 -4.344,0.721Z" style="fill:#fff;fill-rule:nonzero;"/><path d="M179.676,19.178l-0,3.967l-6.755,0l0,17.28l-4.524,-0l-0,-17.28l-6.788,0l0,-3.967l18.067,-0Z" style="fill:#fff;fill-rule:nonzero;"/></g><g><path d="M22.633,66.399c-1.165,-0 -2.16,-0.27 -2.983,-0.808c-0.823,-0.538 -1.45,-1.289 -1.881,-2.251c-0.431,-0.963 -0.646,-2.078 -0.646,-3.344c0,-1.419 0.263,-2.6 0.789,-3.544c0.525,-0.944 1.216,-1.643 2.071,-2.099c0.855,-0.456 1.782,-0.684 2.783,-0.684c1.165,-0 2.16,0.269 2.983,0.807c0.823,0.538 1.45,1.289 1.881,2.252c0.431,0.962 0.646,2.077 0.646,3.344c0,1.418 -0.26,2.603 -0.779,3.553c-0.519,0.95 -1.206,1.649 -2.061,2.099c-0.855,0.45 -1.79,0.675 -2.803,0.675Zm0.01,-0.912c0.977,-0 1.808,-0.232 2.494,-0.694c0.685,-0.462 1.203,-1.099 1.552,-1.909c0.349,-0.811 0.523,-1.742 0.523,-2.793c0,-1.064 -0.165,-2.011 -0.495,-2.841c-0.33,-0.83 -0.825,-1.482 -1.485,-1.957c-0.66,-0.475 -1.479,-0.712 -2.456,-0.712c-0.978,-0 -1.812,0.228 -2.504,0.684c-0.692,0.456 -1.212,1.092 -1.561,1.909c-0.349,0.817 -0.524,1.751 -0.524,2.803c0,1.051 0.165,1.995 0.495,2.831c0.33,0.836 0.828,1.491 1.495,1.966c0.666,0.475 1.488,0.713 2.466,0.713Z" style="fill:#fff;fill-rule:nonzero;"/><path d="M40.683,53.878l0,12.312l-1.227,-0l-6.511,-9.614c-0.05,-0.076 -0.161,-0.238 -0.33,-0.485c-0.17,-0.247 -0.318,-0.491 -0.444,-0.731l0,10.83l-1.064,-0l0,-12.312l1.151,-0l6.474,9.5c0.164,0.228 0.324,0.465 0.481,0.712c0.158,0.247 0.293,0.485 0.406,0.713l0,-10.925l1.064,-0Z" style="fill:#fff;fill-rule:nonzero;"/><path d="M45.433,65.259l6.251,-0l0,0.931l-7.315,-0l0,-12.312l1.064,-0l0,11.381Z" style="fill:#fff;fill-rule:nonzero;"/><rect x="53.945" y="53.878" width="1.064" height="12.312" style="fill:#fff;fill-rule:nonzero;"/><path d="M68.271,53.878l0,12.312l-1.227,-0l-6.511,-9.614c-0.05,-0.076 -0.161,-0.238 -0.33,-0.485c-0.17,-0.247 -0.318,-0.491 -0.444,-0.731l0,10.83l-1.064,-0l0,-12.312l1.151,-0l6.474,9.5c0.164,0.228 0.324,0.465 0.481,0.712c0.158,0.247 0.293,0.485 0.406,0.713l0,-10.925l1.064,-0Z" style="fill:#fff;fill-rule:nonzero;"/><path d="M73.021,65.278l6.251,-0l0,0.912l-7.315,-0l0,-12.312l7.22,-0l0,0.912l-6.156,-0l0,4.712l5.415,-0l-0.114,0.893l-5.301,-0l0,4.883Z" style="fill:#fff;fill-rule:nonzero;"/><path d="M87.081,68.717l-0.893,-0.285l6.365,-16.834l0.874,0.285l-6.346,16.834Z" style="fill:#fff;fill-rule:nonzero;"/><path d="M104.846,53.878c0.899,-0 1.675,0.148 2.328,0.446c0.652,0.298 1.149,0.716 1.491,1.254c0.342,0.538 0.513,1.175 0.513,1.91c0,0.696 -0.167,1.339 -0.502,1.928c-0.335,0.589 -0.843,1.061 -1.525,1.416c-0.682,0.354 -1.523,0.532 -2.521,0.532l-2.482,-0l0,4.826l-1.064,-0l0,-12.312l3.762,-0Zm-0.274,6.574c0.771,-0 1.424,-0.13 1.961,-0.39c0.536,-0.26 0.934,-0.608 1.193,-1.045c0.259,-0.437 0.388,-0.921 0.388,-1.453c0,-0.862 -0.278,-1.539 -0.833,-2.033c-0.556,-0.494 -1.377,-0.741 -2.462,-0.741l-2.671,-0l0,5.662l2.424,-0Z" style="fill:#fff;fill-rule:nonzero;"/><path d="M114.935,53.878l4.883,12.217l0,0.095l-1.102,-0l-1.52,-3.857l-5.719,-0l-1.501,3.857l-1.026,-0l0,-0.095l4.845,-12.217l1.14,-0Zm-3.097,7.562l5.016,-0l-2.508,-6.422l-2.508,6.422Z" style="fill:#fff;fill-rule:nonzero;"/><path d="M130.61,66.095l0,0.095l-1.194,-0l-3.904,-5.111l-2.388,-0l0,5.111l-1.064,-0l0,-12.312l3.591,-0c0.899,-0 1.672,0.142 2.318,0.427c0.646,0.285 1.14,0.69 1.482,1.216c0.342,0.526 0.513,1.143 0.513,1.853c0,0.62 -0.123,1.181 -0.37,1.681c-0.247,0.5 -0.618,0.922 -1.112,1.264c-0.494,0.342 -1.102,0.57 -1.824,0.684l3.952,5.092Zm-7.486,-5.909l2.5,-0c1.086,-0 1.903,-0.247 2.452,-0.741c0.55,-0.494 0.824,-1.159 0.824,-1.995c0,-0.836 -0.274,-1.489 -0.824,-1.957c-0.549,-0.469 -1.366,-0.703 -2.452,-0.703l-2.5,-0l0,5.396Z" style="fill:#fff;fill-rule:nonzero;"/><path d="M138.723,65.259l6.251,-0l0,0.931l-7.315,-0l0,-12.312l1.064,-0l0,11.381Z" style="fill:#fff;fill-rule:nonzero;"/><rect x="147.235" y="53.878" width="1.064" height="12.312" style="fill:#fff;fill-rule:nonzero;"/><path d="M160.858,59.597l0,5.719c-0.722,0.367 -1.396,0.639 -2.023,0.817c-0.627,0.177 -1.321,0.266 -2.081,0.266c-1.229,-0 -2.264,-0.27 -3.106,-0.808c-0.843,-0.538 -1.473,-1.286 -1.891,-2.242c-0.418,-0.956 -0.627,-2.068 -0.627,-3.334c0,-1.419 0.269,-2.607 0.808,-3.563c0.538,-0.956 1.241,-1.659 2.109,-2.109c0.867,-0.45 1.789,-0.674 2.764,-0.674c1.431,-0 2.685,0.361 3.762,1.083l-0.495,0.798c-0.978,-0.634 -2.05,-0.95 -3.218,-0.95c-0.991,-0 -1.835,0.228 -2.533,0.684c-0.698,0.456 -1.228,1.089 -1.59,1.9c-0.362,0.81 -0.543,1.741 -0.543,2.793c0,1.076 0.158,2.026 0.475,2.85c0.317,0.823 0.817,1.469 1.501,1.938c0.684,0.468 1.545,0.703 2.584,0.703c0.595,-0 1.131,-0.061 1.606,-0.181c0.475,-0.12 0.953,-0.294 1.434,-0.522l0,-4.275l-3.363,-0l0.114,-0.893l4.313,-0Z" style="fill:#fff;fill-rule:nonzero;"/><path d="M173.55,53.878l0,12.312l-1.227,-0l-6.511,-9.614c-0.05,-0.076 -0.161,-0.238 -0.33,-0.485c-0.17,-0.247 -0.318,-0.491 -0.444,-0.731l0,10.83l-1.064,-0l0,-12.312l1.151,-0l6.474,9.5c0.164,0.228 0.324,0.465 0.481,0.712c0.158,0.247 0.293,0.485 0.406,0.713l0,-10.925l1.064,-0Z" style="fill:#fff;fill-rule:nonzero;"/><path d="M178.3,65.278l6.251,-0l0,0.912l-7.315,-0l0,-12.312l7.22,-0l0,0.912l-6.156,-0l0,4.712l5.415,-0l-0.114,0.893l-5.301,-0l0,4.883Z" style="fill:#fff;fill-rule:nonzero;"/></g></svg>